HIERARCHY
ROOT Hips
{
	OFFSET 0.00000 0.00000 0.00000
	CHANNELS 6 Xposition Yposition Zposition Zrotation Yrotation Xrotation 
	JOINT LHipJoint
	{
		OFFSET 0 0 0
		CHANNELS 3 Zrotation Yrotation Xrotation
		JOINT LeftHip
		{
			OFFSET 1.58895 -1.83665 0.71753
			CHANNELS 3 Zrotation Yrotation Xrotation
			JOINT LeftKnee
			{
				OFFSET 2.50528 -6.88321 0.00000
				CHANNELS 3 Zrotation Yrotation Xrotation
				JOINT LeftAnkle
				{
					OFFSET 2.63244 -7.23257 0.00000
					CHANNELS 3 Zrotation Yrotation Xrotation
					JOINT LeftToe
					{
						OFFSET 0.23691 -0.65090 1.72750
						CHANNELS 3 Zrotation Yrotation Xrotation
						End Site
						{
							OFFSET 0.00000 -0.00000 0.92561
						}
					}
				}
			}
		}
	}
	JOINT RHipJoint
	{
		OFFSET 0 0 0
		CHANNELS 3 Zrotation Yrotation Xrotation
		JOINT RightHip
		{
			OFFSET -1.51435 -1.83665 0.71753
			CHANNELS 3 Zrotation Yrotation Xrotation
			JOINT RightKnee
			{
				OFFSET -2.54551 -6.99375 0.00000
				CHANNELS 3 Zrotation Yrotation Xrotation
				JOINT RightAnkle
				{
					OFFSET -2.66027 -7.30903 0.00000
					CHANNELS 3 Zrotation Yrotation Xrotation
					JOINT RightToe
					{
						OFFSET -0.22981 -0.63138 2.03959
						CHANNELS 3 Zrotation Yrotation Xrotation
						End Site
						{
							OFFSET -0.00000 -0.00000 1.07060
						}
					}
				}
			}
		}
	}
	JOINT lowerback
	{
		OFFSET 0 0 0
		CHANNELS 3 Zrotation Yrotation Xrotation
		JOINT Chest
		{
			OFFSET -0.02651 1.86275 -0.11152
			CHANNELS 3 Zrotation Yrotation Xrotation
			JOINT Chest2
			{
				OFFSET 0.01019 1.86224 0.04087
				CHANNELS 3 Zrotation Yrotation Xrotation
				JOINT lowerneck
				{
					OFFSET 0 0 0
					CHANNELS 3 Zrotation Yrotation Xrotation
					JOINT Neck
					{
						OFFSET -0.01926 1.80512 0.08867
						CHANNELS 3 Zrotation Yrotation Xrotation
						JOINT Head
						{
							OFFSET 0.05516 1.76451 -0.38475
							CHANNELS 3 Zrotation Yrotation Xrotation
							End Site
							{
								OFFSET 0.01592 1.82587 -0.14001
							}
						}
					}
				}
				JOINT LeftCollar
				{
					OFFSET 0 0 0
					CHANNELS 3 Zrotation Yrotation Xrotation
					JOINT LeftShoulder
					{
						OFFSET 3.47116 1.51376 0.14491
CHANNELS 3 Zrotation Xrotation Yrotation
						JOINT LeftElbow
						{
OFFSET 0 -4.780950 0.000000
CHANNELS 3 Zrotation Xrotation Yrotation
							JOINT LeftWrist
							{
OFFSET 0 -3.586150 -0.000000
CHANNELS 3 Zrotation Xrotation Yrotation
								JOINT lhand
								{
									OFFSET 0 0 0
CHANNELS 3 Zrotation Xrotation Yrotation
									JOINT LFingers
									{
OFFSET 0 -0.659810 0.000000
CHANNELS 3 Zrotation Xrotation Yrotation
										End Site
										{
OFFSET 0 -0.531960 0.000000
										}
									}
								}
								JOINT LThumb
								{
OFFSET 0 0.000000 0.000000
CHANNELS 3 Zrotation Xrotation Yrotation
									End Site
									{
OFFSET 0 -0.540080 0.540080
									}
								}
							}
						}
					}
				}
				JOINT RightCollar
				{
					OFFSET 0 0 0
					CHANNELS 3 Zrotation Yrotation Xrotation
					JOINT RightShoulder
					{
						OFFSET -3.31725 1.61216 0.35156
CHANNELS 3 Zrotation Xrotation Yrotation
						JOINT RightElbow
						{
OFFSET 0 -4.489130 0.000000
CHANNELS 3 Zrotation Xrotation Yrotation
							JOINT RightWrist
							{
OFFSET 0 -3.705100 0.000000
CHANNELS 3 Zrotation Xrotation Yrotation
								JOINT rhand
								{
									OFFSET 0 0 0
CHANNELS 3 Zrotation Xrotation Yrotation
									JOINT RFingers
									{
OFFSET 0 -0.449140 0.000000
CHANNELS 3 Zrotation Xrotation Yrotation
										End Site
										{
OFFSET 0 -0.362110 0.000000
										}
									}
								}
								JOINT RThumb
								{
OFFSET 0 0.000000 0.000000
CHANNELS 3 Zrotation Xrotation Yrotation
									End Site
									{
OFFSET 0 -0.367630 0.367630
									}
								}
							}
						}
					}
				}
			}
		}
	}
}
MOTION
Frames: 8
Frame Time: 0.008333333333333333
-0.435592 18.048186 5.792338 -1.442308 -31.487438 1.858872 0.000000 0.000000 0.000000 -14.581354 22.276321 7.571602 0.000000 0.000000 0.000000 0.919075 7.939352 -22.651390 0.100540 2.044778 5.629502 0.000000 0.000000 0.000000 13.464316 13.220546 14.875753 -1.079359 6.603677 -18.546491 0.143959 -7.610887 1.045043 0.000000 0.001687 -0.004623 -1.983265 -8.450520 2.683367 1.611459 -11.317668 -1.365468 3.183498 -5.612198 -2.186999 15.554903 4.507933 -9.971375 4.071607 1.149078 28.847956 -0.998710 2.457347 11.358497 0.000000 0.000000 0.000000 32.799646 -55.130616 28.845055 33.602550 -43.788078 13.837223 33.525713 -71.688198 -2.150031 0.000000 0.000000 0.000000 -7.125000 0.000000 0.000000 5.611635 32.523833 1.721609 0.000000 0.000000 0.000000 -83.261285 -35.163450 43.091046 -156.723333 -34.390011 -112.706026 -4.540233 -87.016929 55.939085 0.000000 0.000000 0.000000 7.125000 0.000000 0.000000 79.931760 73.597047 -62.688702
-0.437136 18.048917 5.794254 -1.443029 -31.458655 1.889765 0.000000 0.000000 0.000000 -14.585756 22.250587 7.541765 0.000000 0.000000 0.000000 0.916708 7.942762 -22.633215 0.097641 2.014630 5.546141 0.000000 0.000000 0.000000 13.463215 13.232935 14.863257 -1.079682 6.604646 -18.549279 0.145037 -7.622158 1.017233 0.000000 0.024618 -0.067721 -1.971097 -8.409529 2.661378 1.546584 -11.263128 -1.358782 3.107392 -5.585288 -2.186639 15.754274 4.482248 -10.010318 3.977111 1.086456 28.860213 -1.072440 2.440474 11.373887 0.000000 0.000000 0.000000 32.881314 -55.191284 28.701110 33.549045 -43.747780 13.800243 33.566467 -71.770250 -2.101302 0.000000 0.000000 0.000000 -7.125000 0.000000 0.000000 5.641805 32.466515 1.738791 0.000000 0.000000 0.000000 -83.008334 -35.034206 43.202736 -156.698651 -34.416746 -112.692078 -4.312892 -87.116591 56.058296 0.000000 0.000000 0.000000 7.125000 0.000000 0.000000 80.394834 73.532048 -63.068026
-0.438791 18.049930 5.796424 -1.447901 -31.435260 1.919092 0.000000 0.000000 0.000000 -14.584725 22.231197 7.515562 0.000000 0.000000 0.000000 0.913058 7.954496 -22.610605 0.089843 1.932766 5.319855 0.000000 0.000000 0.000000 13.467128 13.245211 14.845104 -1.078476 6.601062 -18.538751 0.145996 -7.629369 0.987287 0.000000 0.009997 -0.027558 -1.937333 -8.354168 2.597788 1.456919 -11.188184 -1.318868 2.984801 -5.549917 -2.139053 15.950236 4.433836 -10.102897 3.910498 0.973974 28.863067 -1.141135 2.404144 11.393320 0.000000 0.000000 0.000000 32.988495 -55.299034 28.516370 33.482458 -43.697602 13.754230 33.592426 -71.906639 -2.010270 0.000000 0.000000 0.000000 -7.125000 0.000000 0.000000 5.657715 32.358342 1.758511 0.000000 0.000000 0.000000 -82.777334 -34.833101 43.254330 -156.700282 -34.414961 -112.693000 -4.003644 -87.329085 56.147209 0.000000 0.000000 0.000000 7.125000 0.000000 0.000000 80.775265 73.433936 -63.328174
-0.440591 18.050660 5.798473 -1.464728 -31.432342 1.952927 0.000000 0.000000 0.000000 -14.573165 22.233241 7.489611 0.000000 0.000000 0.000000 0.909274 7.966033 -22.586310 0.083895 1.868125 5.141274 0.000000 0.000000 0.000000 13.483031 13.273180 14.827468 -1.076714 6.595815 -18.523396 0.147147 -7.641579 0.958006 -0.000026 -0.037457 0.102795 -1.912247 -8.314841 2.544607 1.412988 -11.134566 -1.292120 2.915675 -5.524696 -2.098660 16.005251 4.400253 -10.136416 3.897159 0.916688 28.818888 -1.162171 2.380603 11.380794 0.000000 0.000000 0.000000 33.036454 -55.369461 28.421103 33.479482 -43.695352 13.752148 33.597849 -72.014192 -1.946088 0.000000 0.000000 0.000000 -7.125000 0.000000 0.000000 5.658521 32.281725 1.769244 0.000000 0.000000 0.000000 -82.634119 -34.676361 43.292944 -156.723730 -34.389502 -112.706255 -3.702333 -87.597404 56.131679 0.000000 0.000000 0.000000 7.125000 0.000000 0.000000 80.803338 73.325494 -63.229046
-0.441700 18.051669 5.800695 -1.501557 -31.435703 2.011493 0.000000 0.000000 0.000000 -14.551738 22.239685 7.450249 0.000000 0.000000 0.000000 0.910102 7.944793 -22.576957 0.086510 1.897117 5.221459 0.000000 0.000000 0.000000 13.512242 13.316969 14.802105 -1.075938 6.593434 -18.516403 0.148719 -7.662697 0.924907 -0.000081 -0.050925 0.139969 -1.881569 -8.303581 2.492482 1.411014 -11.117731 -1.288008 2.888711 -5.517319 -2.072590 15.916231 4.391197 -10.104301 3.968589 0.917594 28.750923 -1.122759 2.375519 11.345257 0.000000 0.000000 0.000000 33.065799 -55.385897 28.432930 33.515668 -43.722685 13.777159 33.620721 -72.065922 -1.918879 0.000000 0.000000 0.000000 -7.125000 0.000000 0.000000 5.675394 32.249599 1.779029 0.000000 0.000000 0.000000 -82.504822 -34.643022 43.353672 -156.743245 -34.368387 -112.717324 -3.564669 -87.771851 56.023588 0.000000 0.000000 0.000000 7.125000 0.000000 0.000000 80.481400 73.262913 -62.838263
-0.441749 18.052886 5.803657 -1.510207 -31.437301 2.049254 0.000000 0.000000 0.000000 -14.559152 22.248448 7.420876 0.000000 0.000000 0.000000 0.913727 7.904681 -22.577472 0.091081 1.946291 5.357283 0.000000 0.000000 0.000000 13.509134 13.325581 14.777287 -1.076310 6.594618 -18.519891 0.148652 -7.658764 0.920399 0.000000 -0.012616 0.034738 -1.879716 -8.305773 2.446737 1.416713 -11.119800 -1.287991 2.885862 -5.518957 -2.046324 15.756033 4.390871 -10.044473 4.084607 0.938823 28.685071 -1.053542 2.376885 11.304309 0.000000 0.000000 0.000000 33.113229 -55.387011 28.486469 33.545166 -43.744871 13.797588 33.666643 -72.060732 -1.912226 0.000000 0.000000 0.000000 -7.125000 0.000000 0.000000 5.712042 32.242384 1.791533 0.000000 0.000000 0.000000 -82.408108 -34.712830 43.399853 -156.759346 -34.350944 -112.726384 -3.644523 -87.773001 55.886706 0.000000 0.000000 0.000000 7.125000 0.000000 0.000000 80.005191 73.272307 -62.381042
-0.442161 18.053500 5.807071 -1.483840 -31.435735 2.055795 0.000000 0.000000 0.000000 -14.595386 22.257014 7.404461 0.000000 0.000000 0.000000 0.912296 7.901915 -22.563371 0.087147 1.903701 5.239482 0.000000 0.000000 0.000000 13.474297 13.306163 14.762250 -1.077993 6.599562 -18.534258 0.147556 -7.642861 0.938082 -0.000022 0.018419 -0.050465 -1.932933 -8.324688 2.425705 1.443279 -11.146279 -1.295363 2.937330 -5.531813 -2.025464 15.580910 4.403035 -9.974769 4.164495 0.992587 28.633387 -0.991223 2.388077 11.267600 0.000000 0.000000 0.000000 33.163304 -55.342785 28.580623 33.595092 -43.782473 13.832076 33.672042 -71.997248 -1.966508 0.000000 0.000000 0.000000 -7.125000 0.000000 0.000000 5.719480 32.307355 1.784894 0.000000 0.000000 0.000000 -82.397753 -34.864182 43.440135 -156.776821 -34.331968 -112.736266 -3.786254 -87.655352 55.655726 0.000000 0.000000 0.000000 7.125000 0.000000 0.000000 79.198987 73.288651 -61.610340
-0.443185 18.053500 5.809959 -1.492969 -31.421110 2.076010 0.000000 0.000000 0.000000 -14.590076 22.252169 7.393655 0.000000 0.000000 0.000000 0.908849 7.917378 -22.544274 0.082861 1.856378 5.108971 0.000000 0.000000 0.000000 13.481004 13.292003 14.761412 -1.081253 6.609064 -18.562298 0.146811 -7.642209 0.973295 -0.000395 0.125268 -0.344090 -1.979138 -8.371824 2.449459 1.519014 -11.210184 -1.325173 3.044365 -5.562461 -2.041766 15.494834 4.444210 -9.915056 4.062956 1.119185 28.602739 -1.000073 2.423196 11.245615 0.000000 0.000000 0.000000 33.166751 -55.217398 28.712904 33.711629 -43.869946 13.912842 33.566217 -72.011594 -2.005540 0.000000 0.000000 0.000000 -7.125000 0.000000 0.000000 5.636293 32.352256 1.752662 0.000000 0.000000 0.000000 -82.425699 -35.068471 43.515125 -156.778871 -34.329732 -112.737384 -3.756723 -87.573375 55.492145 0.000000 0.000000 0.000000 7.125000 0.000000 0.000000 78.667815 73.252321 -61.049639
